<?xml version="1.0" encoding="UTF-8" standalone="no"?>
<!-- Created with Inkscape (http://www.inkscape.org/) -->

<svg
   version="1.1"
   id="svg1"
   width="612"
   height="612"
   viewBox="0 0 612 612"
   sodipodi:docname="milky.svg"
   inkscape:version="1.3.1 (91b66b0783, 2023-11-16)"
   xmlns:inkscape="http://www.inkscape.org/namespaces/inkscape"
   xmlns:sodipodi="http://sodipodi.sourceforge.net/DTD/sodipodi-0.dtd"
   xmlns="http://www.w3.org/2000/svg"
   xmlns:svg="http://www.w3.org/2000/svg">
  <defs
     id="defs1" />
  <sodipodi:namedview
     id="namedview1"
     pagecolor="#ffffff"
     bordercolor="#000000"
     borderopacity="0.25"
     inkscape:showpageshadow="2"
     inkscape:pageopacity="0.0"
     inkscape:pagecheckerboard="0"
     inkscape:deskcolor="#d1d1d1"
     inkscape:zoom="1.2696078"
     inkscape:cx="306"
     inkscape:cy="306"
     inkscape:window-width="1920"
     inkscape:window-height="991"
     inkscape:window-x="-9"
     inkscape:window-y="-9"
     inkscape:window-maximized="1"
     inkscape:current-layer="g1" />
  <g
     inkscape:groupmode="layer"
     inkscape:label="Image"
     id="g1">
    <g
       id="g2"
       transform="translate(-46.471042,-38.594595)"
       style="fill:#010101;fill-opacity:1">
      <path
         style="fill:#010101;fill-opacity:1"
         d="m 522.98775,603.76715 c -3.71472,-1.46884 -78.59698,-10.5384 -148.5,-17.98595 -23.925,-2.549 -43.66493,-4.79787 -43.86651,-4.99749 -0.38309,-0.37936 -2.03456,-21.03063 -4.59529,-57.46325 -1.66556,-23.69657 -11.34078,-150.04767 -14.51079,-189.5 -3.04817,-37.93594 -8.01698,-102.79811 -8.7016,-113.58947 l -0.60837,-9.58947 8.39128,-10.27995 c 4.6152,-5.65398 13.08277,-15.96372 18.8168,-22.91053 5.73404,-6.94682 14.6032,-17.88545 19.70924,-24.30807 5.10603,-6.42263 9.86455,-12.04762 10.57447,-12.5 l 1.29077,-0.82251 0.0186,-6.5 c 0.0102,-3.575 0.1227,-13.8125 0.25,-22.75 l 0.23145,-16.249997 h 22.26707 c 33.27989,0 63.36126,2.200873 109.23293,7.991917 37.48722,4.73255 91.93955,13.81321 105.63589,17.61619 l 1.63588,0.45423 -0.32574,3.21883 c -0.17916,1.77036 -0.58106,12.97118 -0.8931,24.89071 l -0.56736,21.67187 2.91875,2.32813 c 1.60531,1.28046 5.95576,6.15312 9.66768,10.82812 3.71191,4.675 8.59357,10.75 10.84812,13.5 5.85869,7.14617 7.94119,10.29179 11.56163,17.46384 l 3.20137,6.34189 -0.54641,3.09713 c -0.30053,1.70343 -1.66278,8.72214 -3.02724,15.59714 -3.01715,15.2024 -7.28524,44.84014 -21.09722,146.5 -5.82859,42.9 -12.12962,88.8 -14.00227,102 -1.87266,13.2 -4.12442,31.2 -5.0039,40 -0.87949,8.8 -1.91565,18.67955 -2.30257,21.95456 l -0.70351,5.95456 -8,6.3194 c -4.4,3.47567 -10.9785,8.67112 -14.6189,11.54544 -3.64039,2.87432 -12.55167,10.0754 -19.80284,16.0024 -7.30002,5.96692 -13.67561,10.47249 -14.28561,10.09549 -0.63893,-0.39488 -0.81973,-0.22468 -0.43043,0.40522 1.48151,2.39712 -6.02069,5.18861 -9.86222,3.66962 z m 0,-69.94885 v -50.50129 l -3,-0.50532 c -2.27044,-0.38244 -147.53767,-18.72012 -175.80377,-22.19243 l -4.80376,-0.59012 0.56659,4.89566 c 0.31162,2.69261 1.23624,14.34566 2.0547,25.89566 1.57084,22.16743 5.17888,65.17002 6.04983,72.10528 l 0.51555,4.10527 10.71043,0.67484 c 34.07849,2.1472 97.18657,8.74412 144.21043,15.07485 5.225,0.70343 11.75,1.33745 14.5,1.40893 l 5,0.12996 z m 18.5,37.41824 c 1.925,-1.66656 5.3,-4.38669 7.5,-6.04472 2.2,-1.65804 5.575,-4.44527 7.5,-6.19384 1.925,-1.74858 5.975,-5.20384 9,-7.67837 9.18161,-7.5108 9.12272,-7.43047 9.63701,-13.14582 0.26495,-2.94433 1.59372,-14.12833 2.95282,-24.85333 1.35911,-10.725 7.63723,-60.675 13.95138,-111 14.42792,-114.99323 18.74167,-146.86685 21.98347,-162.43243 0.79409,-3.81283 1.26187,-7.11435 1.03952,-7.3367 -0.7207,-0.7207 -18.62798,5.76192 -36.89454,13.3562 -9.80668,4.07711 -18.45335,7.41293 -19.21481,7.41293 -2.0838,0 -3.13299,2.80275 -3.74345,10 -0.30323,3.575 -1.70171,17.75 -3.10774,31.5 -7.70647,75.36385 -12.62834,154.12106 -14.06119,225 -0.31132,15.4 -0.81038,33.9625 -1.10902,41.25 -0.29864,7.2875 -0.18084,13.23789 0.26178,13.2231 0.44263,-0.0148 2.37977,-1.39045 4.30477,-3.05702 z M 524.89506,453.57046 c 0.88833,-22.75801 3.09555,-54.88445 5.67553,-82.60818 1.11877,-12.02201 1.89531,-21.97285 1.72564,-22.11299 -0.16966,-0.14014 -27.98348,-3.72471 -61.80848,-7.96569 -33.825,-4.24099 -79.20055,-9.9646 -100.83454,-12.71914 -21.634,-2.75453 -39.6113,-4.73149 -39.94956,-4.39323 -0.33826,0.33825 0.39208,13.76271 1.62297,29.83212 5.56814,72.69296 7.27917,94.16849 7.5221,94.41141 0.1435,0.1435 38.03349,5.02123 84.19997,10.83938 46.16648,5.81816 86.41406,10.94836 89.43906,11.40045 3.025,0.45209 6.89825,0.87686 8.60723,0.94393 l 3.10723,0.12194 z m -59.34999,-21.68093 c -2.08541,-2.51277 -2.27631,-11.56592 -0.65513,-31.06907 2.01669,-24.26119 3.45645,-29.78455 6.7345,-25.8357 l 1.36331,1.64228 0.35533,11.84671 c 0.19543,6.51569 0.58067,11.84671 0.85609,11.84671 0.27543,0 2.2071,-1.35144 4.29262,-3.0032 6.32051,-5.00594 17.00562,-8.93407 16.99222,-6.2468 -0.01,1.99276 -4.34408,7.43503 -9.39153,11.79268 -3.0826,2.66132 -5.60473,5.19099 -5.60473,5.62148 0,0.43049 2.24804,2.29662 4.99564,4.14697 2.7476,1.85034 4.6601,3.73444 4.25,4.18689 -0.4101,0.45245 -0.26184,0.54756 0.32947,0.21137 1.43902,-0.81815 13.10291,8.70078 13.95638,11.38984 0.42824,1.34924 0.10525,2.69261 -0.88562,3.68347 l -1.55969,1.55969 -3.86926,-1.15925 c -3.54108,-1.06094 -12.8586,-7.19043 -20.96692,-13.793 l -3.25,-2.64646 -0.006,3.37816 c -0.0104,6.56634 -3.14175,13.87816 -5.94298,13.87816 -0.44337,0 -1.34054,-0.64392 -1.9937,-1.43093 z m -27.37921,-3.05322 c -3.89401,-2.03103 -6.44384,-5.305 -7.74884,-9.9495 l -1.10526,-3.93365 1.13705,-12.06635 c 3.18783,-33.82916 3.33725,-34.56635 7.0064,-34.56635 0.94741,0 2.55524,0.9201 3.57296,2.04466 l 1.85039,2.04466 -1.20843,18.70534 c -0.66463,10.28794 -1.20256,20.18829 -1.1954,22.00079 l 0.013,3.29546 2.45455,2.45454 c 1.55414,1.55415 3.59583,2.45455 5.56574,2.45455 6.54217,0 9.27634,4.27797 4.7572,7.4433 -2.82975,1.98203 -11.35981,2.02302 -15.09938,0.0725 z m -80.36909,-9.76585 c -0.44496,-0.6875 -0.95078,-12.19683 -1.12404,-25.5763 l -0.31502,-24.32629 1.58807,-2.42371 c 0.87344,-1.33303 2.40796,-2.4237 3.41004,-2.4237 2.81505,0 4.51955,2.35266 12.48875,17.23771 1.10061,2.05573 2.25807,3.4952 2.57214,3.19881 0.31407,-0.29639 3.27104,-6.02835 6.57104,-12.7377 l 6,-12.19882 2.5856,-0.30056 c 1.42207,-0.1653 3.09467,0.31285 3.71688,1.06256 0.62221,0.74972 2.96675,10.10997 5.21009,20.80056 5.29178,25.21788 6.22093,30.87097 5.52787,33.63232 -0.66027,2.63074 -4.8846,4.0943 -6.92643,2.39974 -1.72452,-1.43122 -4.07197,-9.91829 -6.11117,-22.09462 -2.55178,-15.23692 -2.79897,-15.48439 -6.36755,-6.37477 -1.10426,2.81887 -2.97794,7.18922 -4.16372,9.71188 -3.67958,7.82796 -8.44473,7.48298 -12.55036,-0.90862 -1.47117,-3.00697 -3.00527,-5.67143 -3.40911,-5.92101 -0.40384,-0.24959 -1.27951,4.99096 -1.94594,11.64565 -0.66643,6.6547 -1.61781,13.16762 -2.11418,14.47316 -0.97513,2.56481 -3.33985,3.13713 -4.64296,1.12371 z m 175.69252,-82 c 8.5e-4,-0.1375 1.13337,-10.825 2.51672,-23.75 1.38335,-12.925 2.98261,-28 3.55392,-33.5 0.5713,-5.5 1.41703,-12.7 1.8794,-16 0.46237,-3.3 0.53202,-6.3329 0.15478,-6.73977 -0.73634,-0.79417 -6.17609,-1.91354 -61.60636,-12.67714 -62.11401,-12.06145 -79.46187,-15.16044 -123.5,-22.06177 -14.025,-2.1979 -27.6375,-4.38708 -30.25,-4.86486 l -4.75,-0.86869 0.0187,4.60612 c 0.0238,5.84332 6.66036,89.11854 7.14053,89.59871 0.55712,0.55712 25.5479,3.84433 117.84073,15.5004 47.025,5.93899 85.8375,10.84516 86.25,10.90259 0.4125,0.0574 0.75069,-0.008 0.75154,-0.14559 z m 16.03953,-98 c 5.01551,-8.10293 29.97795,-59.12712 29.26144,-59.81151 -0.69815,-0.66684 -31.41764,-5.61896 -64.30251,-10.36585 -25.75421,-3.71759 -71.46867,-9.61977 -93,-12.00719 -12.925,-1.43314 -27.775,-3.11256 -33,-3.73204 -5.225,-0.61948 -11.39252,-1.32914 -13.70561,-1.57703 l -4.20561,-0.45071 -1.8368,3.02038 c -1.01024,1.66121 -4.81863,6.31743 -8.4631,10.34716 -3.64446,4.02974 -11.45229,13.05104 -17.35074,20.04733 -5.89844,6.9963 -11.17955,12.43928 -11.7358,12.0955 -0.5779,-0.35717 -0.70352,-0.12696 -0.29309,0.53712 0.39505,0.6392 0.0146,1.86587 -0.84549,2.72594 -1.46692,1.46691 -2.10788,3.4209 -1.12216,3.4209 6.10345,0 75.27668,9.44294 103.0584,14.06865 31.66236,5.27185 77.91616,15.11609 105,22.34725 4.95,1.3216 9.34411,2.44369 9.7647,2.49351 0.42058,0.0498 1.66995,-1.37191 2.77637,-3.15941 z m 23.57061,-6.81572 c 3.78858,-1.68614 8.68832,-3.88386 10.88832,-4.88383 4.12854,-1.87653 24.62971,-10.27888 27.77451,-11.3833 l 1.77452,-0.62319 -5.00637,-8.07193 c -4.21399,-6.79436 -15.77321,-21.97203 -16.73375,-21.97203 -0.16071,0 -2.81968,5.0625 -5.90883,11.25 -3.08914,6.1875 -6.3554,12.08474 -7.25835,13.10499 -0.90295,1.02024 -1.52407,2.03535 -1.38026,2.25579 0.2883,0.44192 -4.3868,9.95246 -8.91669,18.13922 -1.59771,2.8875 -2.72864,5.25 -2.51317,5.25 0.21547,0 3.4915,-1.37957 7.28007,-3.06572 z m 11.89025,-79.14906 c 0.4438,-6.20687 0.84991,-12.81477 0.90249,-14.68423 l 0.0956,-3.39901 -15,-3.32086 C 520.8037,120.59132 453.23772,112.41683 389.07726,109.69308 l -15.91049,-0.67544 0.66049,9.30504 c 0.36327,5.11777 0.66305,11.8234 0.66619,14.90141 l 0.006,5.59637 16.2443,0.0822 c 16.76446,0.0848 24.7403,0.7271 62.2443,5.01245 36.62249,4.18462 77.87469,10.65811 114,17.88941 8.8,1.76152 16.26888,3.06409 16.59752,2.89459 0.32863,-0.1695 0.96062,-5.38654 1.40441,-11.59341 z"
         id="path1" />
    </g>
    <path
       style="fill:#1960ae;fill-opacity:1;stroke-width:0.878193"
       d="m 490.70654,530.77211 c 0.0204,-24.58499 2.93695,-107.43367 5.16771,-146.79528 2.89791,-51.1334 12.48523,-161.23613 14.50163,-166.53966 0.44829,-1.17912 1.80897,-2.21674 3.71041,-2.82948 1.65138,-0.53217 10.8002,-4.07952 20.3307,-7.88301 9.5305,-3.80348 20.9612,-8.17582 25.40154,-9.7163 9.41731,-3.26713 8.81602,-4.04945 6.51473,8.47622 -3.41635,18.59483 -8.95833,60.62769 -27.22068,206.45362 -6.36627,50.83506 -11.94861,92.65156 -12.45027,93.26316 -1.60894,1.96154 -26.05746,22.53714 -34.97505,29.43461 -0.76241,0.5897 -0.98369,-0.28212 -0.98072,-3.86388 z"
       id="path2" />
    <path
       style="fill:#2c83d0;fill-opacity:1;stroke-width:0.878193"
       d="m 468.64865,296.04905 c -8.01429,-1.04188 -47.9385,-6.14463 -88.72048,-11.33945 -90.51969,-11.53042 -96.54316,-12.36192 -97.19533,-13.41717 -0.56254,-0.9102 -1.12622,-7.20391 -4.69489,-52.42009 -1.29521,-16.41068 -2.35657,-32.25395 -2.3586,-35.20727 -0.003,-4.7469 0.15619,-5.32185 1.3747,-4.95728 0.75811,0.22682 17.15097,2.93598 36.42858,6.02036 36.89882,5.90374 65.30124,10.94203 106.33204,18.8622 36.73369,7.0907 68.50825,13.40592 71.98106,14.3063 l 3.06213,0.79391 -0.46378,6.04468 c -0.25508,3.32458 -2.07609,20.88016 -4.04669,39.01241 -1.9706,18.13224 -3.58291,33.28456 -3.58291,33.67181 0,0.92845 -1.03477,0.85018 -18.11583,-1.37041 z"
       id="path3" />
    <path
       style="fill:#2c83d0;fill-opacity:1;stroke-width:0.878193"
       d="m 467.07336,544.89407 c -1.51622,-0.1638 -12.50386,-1.51321 -24.41699,-2.99869 -44.16972,-5.50762 -90.12041,-10.24811 -122.47876,-12.63549 -9.53051,-0.70315 -17.45106,-1.40064 -17.60124,-1.54995 -0.61912,-0.61557 -8.78486,-97.65425 -8.78486,-104.39598 0,-1.16657 0.47322,-1.3617 2.55984,-1.05551 2.04349,0.29986 161.44598,20.38012 175.64479,22.12634 l 3.74131,0.46012 v 50.29955 50.29956 l -2.95367,-0.12606 c -1.62451,-0.0693 -4.1942,-0.26007 -5.71042,-0.42389 z"
       id="path4" />
    <path
       style="fill:#ffffff;fill-opacity:1;stroke-width:0.878193"
       d="m 489.12741,200.37949 c -17.29399,-4.78504 -63.80527,-14.87915 -92.15444,-19.99983 -20.66005,-3.7318 -75.73587,-11.67104 -103.51104,-14.92123 -5.5673,-0.65147 -10.26282,-1.32496 -10.4345,-1.49663 -0.45093,-0.45094 2.3267,-5.5372 3.40418,-6.23356 1.31581,-0.85038 34.19403,-38.90207 36.33424,-42.05153 0.99032,-1.45732 1.95019,-2.64968 2.13304,-2.64968 1.14601,0 72.14183,8.25254 85.07022,9.88855 46.68899,5.90819 120.32498,16.83797 121.52493,18.03792 0.68934,0.68934 -24.15863,51.70605 -28.64567,58.81399 -2.31439,3.66622 -2.63133,3.68036 -13.72096,0.612 z"
       id="path5" />
    <path
       style="fill:#ffffff;fill-opacity:1;stroke-width:0.878193"
       d="m 533.23552,125.17272 c -3.67561,-0.85207 -41.05587,-7.74137 -52.7722,-9.72607 C 431.83389,107.20901 377.1405,100.88215 346.47797,99.947386 L 328.67022,99.40451 328.12156,86.721559 c -0.30176,-6.975621 -0.74904,-13.497938 -0.99396,-14.494036 -0.3863,-1.571095 -0.19786,-1.760091 1.42204,-1.426249 1.02704,0.211662 7.89283,0.59716 15.25731,0.856662 57.38512,2.022086 128.37275,10.584389 179.40349,21.639081 8.09779,1.754208 14.96164,3.189469 15.25303,3.189469 0.56506,0 -0.16216,18.100814 -1.00472,25.007724 -0.51096,4.18873 -0.82865,4.46544 -4.22323,3.67851 z"
       id="path6" />
    <path
       style="fill:#ffffff;fill-opacity:1;stroke-width:0.878193"
       d="m 520.6332,195.28644 c 0,-0.25544 2.09047,-4.42487 4.64549,-9.2654 2.55501,-4.84053 4.89436,-9.635 5.19854,-10.65439 0.30419,-1.01938 1.4384,-3.14602 2.52046,-4.72587 1.08206,-1.57984 4.04359,-6.9485 6.58116,-11.93036 2.53757,-4.98185 4.944,-9.54586 5.34761,-10.14224 0.55883,-0.82572 1.91496,0.39531 5.68618,5.11969 4.63067,5.80107 15.91293,22.41031 15.49754,22.81479 -0.10307,0.10036 -4.6179,1.9508 -10.03296,4.11208 -5.41506,2.16128 -14.45328,5.95563 -20.08494,8.4319 -15.0901,6.63516 -15.35908,6.74444 -15.35908,6.2398 z"
       id="path7" />
    <path
       style="fill:#ffffff;fill-opacity:1;stroke-width:0.878193"
       d="m 385.1583,421.01751 c -46.13629,-5.94595 -85.74663,-11.07498 -88.02298,-11.39784 -3.34788,-0.47485 -4.2104,-0.91148 -4.51345,-2.28482 -0.66163,-2.9983 -9.05192,-113.08557 -9.06367,-118.92264 l -0.006,-3.01636 5.31661,0.52336 c 5.79506,0.57045 158.87479,19.69723 181.54167,22.683 7.68364,1.01212 14.21307,2.08304 14.50986,2.37982 0.29678,0.29679 -0.0756,7.68841 -0.8275,16.42583 -2.54386,29.56046 -4.31479,53.74376 -5.15189,70.35276 -0.4585,9.0973 -1.04737,20.52799 -1.30858,25.40154 l -0.47495,8.86101 -4.05743,-0.0974 c -2.23159,-0.0536 -41.80532,-4.96228 -87.94161,-10.90823 z m 73.24802,-29.79888 c -0.01,-1.77497 -3.62201,-5.87483 -7.9743,-9.05024 -2.76039,-2.01397 -6.79109,-5.08073 -8.95712,-6.81501 -2.16602,-1.73428 -4.64268,-3.66164 -5.50369,-4.28302 -1.49708,-1.08043 -1.28673,-1.40075 4.81542,-7.3331 7.03221,-6.83653 9.82067,-11.03425 8.05481,-12.12561 -2.11742,-1.30864 -10.93404,2.15821 -17.2161,6.76966 l -3.77203,2.76893 -0.49164,-10.83767 c -0.59573,-13.13234 -0.99925,-14.77589 -3.62774,-14.77589 -1.68496,0 -2.08202,0.53442 -2.91997,3.93006 -1.4484,5.86944 -3.46383,28.48092 -3.61929,40.60534 -0.11697,9.12354 0.0699,10.98216 1.2914,12.84748 2.99331,4.57083 6.76907,0.748 8.48889,-8.59473 0.47384,-2.57402 0.9763,-4.79799 1.11659,-4.94216 0.1403,-0.14417 2.50006,1.48084 5.24393,3.61112 7.76815,6.03104 12.45546,9.02636 17.17831,10.97742 l 4.35107,1.79749 1.77221,-2.00163 c 0.97471,-1.1009 1.77087,-2.24769 1.76925,-2.54844 z m -52.4746,-0.11529 c 2.35312,-0.89465 3.90638,-3.48233 3.27824,-5.46144 -0.54488,-1.71677 -3.63765,-3.24036 -6.5777,-3.24036 -1.17867,0 -3.46585,-0.89887 -5.08263,-1.9975 l -2.93959,-1.99751 0.0285,-6.07585 c 0.0157,-3.34172 0.51164,-13.32028 1.10206,-22.17457 0.9527,-14.2871 0.93861,-16.30458 -0.12521,-17.92817 -1.25444,-1.91453 -3.82597,-2.92934 -6.24328,-2.46381 -1.0153,0.19553 -1.69636,1.51598 -2.37189,4.59871 -1.01529,4.63316 -4.2049,35.55551 -4.2049,40.76528 0,6.62532 3.86916,13.29275 9.05791,15.60879 2.75735,1.23076 11.22537,1.45117 14.07844,0.36643 z m -90.63874,-10.10166 c 0.85513,-0.94491 1.79075,-5.32643 2.87883,-13.48162 0.88659,-6.64497 1.6153,-12.48356 1.61937,-12.97465 0.004,-0.4911 1.11015,1.05652 2.45797,3.43915 3.3603,5.94022 5.28789,7.87644 7.8413,7.87644 3.0512,0 5.38556,-3.12558 9.34857,-12.51727 1.84773,-4.37882 3.63744,-7.96149 3.97714,-7.96149 0.33969,0 1.39294,4.34189 2.34054,9.64865 2.10085,11.76521 4.44667,20.8635 5.99081,23.23552 1.34398,2.06454 3.9705,2.28671 6.45561,0.54607 1.36758,-0.95789 1.75055,-2.00084 1.75055,-4.76733 0,-3.9077 -4.28988,-26.56726 -8.00788,-42.29846 -2.56191,-10.83964 -3.31295,-11.89674 -7.83778,-11.03177 -1.65964,0.31726 -2.93468,2.30183 -7.83658,12.19743 -3.21994,6.50019 -6.09478,11.97025 -6.38853,12.15568 -0.29375,0.18544 -2.37252,-2.94657 -4.61949,-6.96003 -5.84186,-10.43453 -7.46844,-12.41688 -10.18841,-12.41688 -1.50952,0 -2.81051,0.69264 -3.89814,2.07533 -1.51735,1.929 -1.62804,3.05366 -1.56975,15.94981 0.10411,23.03821 0.96005,37.06671 2.31381,37.9227 1.61308,1.01996 1.92575,0.96087 3.37206,-0.63728 z"
       id="path8" />
    <path
       style="fill:#ffffff;fill-opacity:1;stroke-width:1.11496"
       id="path9"
       d="m 363.43395,329.58654 c -0.42772,3.36021 -1.00236,6.69646 -1.51179,10.04425 -0.37255,2.38459 -0.59781,4.78698 -0.7062,7.19702 -0.14279,2.1428 0.0627,4.27197 0.30399,6.39816 0.50844,2.61137 0.79533,5.25508 1.18128,7.88465 0.42883,2.86018 0.66408,5.74381 0.7861,8.63191 0.17408,2.69583 0.88781,5.31726 1.43234,7.95377 1.46192,8.25453 -1.28813,4.84922 14.00621,10.7151 0.4331,0.1661 0.0936,-0.92375 0.10805,-1.38738 0.0205,-0.65533 -0.002,-1.3113 -0.003,-1.96695 -0.0997,-6.68621 -0.12164,-13.37286 -0.0721,-20.05955 0.007,-5.3645 0.0867,-10.72843 0.10243,-16.09287 -0.0209,-3.30577 0.0184,-6.61163 0.0688,-9.91698 0,0 -13.14764,-6.69897 -13.14764,-6.69897 v 0 c 0.0503,3.3295 0.0906,6.65949 0.0722,9.98942 0.0204,5.40286 0.109,10.80509 0.12359,16.20801 0.0542,6.62198 0.0774,13.24849 -0.20926,19.86597 -0.0391,0.60985 -0.0767,1.21981 -0.11737,1.82956 -0.0204,0.30679 -0.32693,0.75753 -0.0659,0.92007 28.27345,17.60685 13.90434,11.38517 12.88299,6.41111 -0.22922,-1.11631 -0.22982,-2.27184 -0.49782,-3.38236 -0.46938,-2.57335 -1.04317,-5.12776 -1.43205,-7.71529 -0.15458,-2.9324 -0.40575,-5.85566 -0.77952,-8.76896 -0.31157,-2.61947 -0.62427,-5.24002 -1.1223,-7.83246 -0.25591,-2.05692 -0.5066,-4.09994 -0.36123,-6.17798 0.0404,-2.38114 0.15983,-4.76186 0.47906,-7.12404 0.46246,-3.28312 0.94991,-6.57331 1.62084,-9.81864 z" />
    <circle
       id="path10"
       style="fill:#ffffff;stroke:#000000"
       cx="368.61777"
       cy="326.08493"
       r="0.44210815" />
    <circle
       id="path11"
       style="fill:#ffffff;stroke:#000000"
       cx="370.98068"
       cy="378.06949"
       r="0.44210815" />
    <path
       style="fill:#ffffff;fill-opacity:1;stroke-width:1.11496"
       id="path12"
       d="m 361.8586,324.97717 c -0.74483,4.67237 -1.27888,9.35378 -1.63497,14.07137 -0.19551,4.24336 -0.60733,8.49817 -0.47091,12.74863 0.22858,2.57515 0.32305,5.1652 0.61861,7.73367 0.54363,2.77076 1.64838,5.40607 2.68719,8.02271 1.01454,2.77721 2.3579,5.41556 3.43447,8.16603 0.11016,0.33209 0.22032,0.66419 0.33048,0.99628 0,0 13.4448,6.34663 13.4448,6.34663 v 0 c -0.10641,-0.3631 -0.21282,-0.72621 -0.31923,-1.08931 -1.02674,-2.80037 -2.49044,-5.40458 -3.49743,-8.2146 -0.97938,-2.52804 -2.02554,-5.045 -2.74026,-7.66227 -0.42172,-2.53291 -0.47114,-5.12162 -0.78409,-7.66989 -0.29538,-4.22971 -0.0306,-8.4814 0.14693,-12.71115 0.32797,-4.59999 0.84067,-9.18425 1.92587,-13.67609 z" />
    <rect
       style="fill:#1e0d0d;fill-opacity:1;stroke-width:0.444522"
       id="rect13"
       width="7.8764491"
       height="53.559822"
       x="366.5993"
       y="326.8559" />
  </g>
</svg>
